# This file uses centimeters as units for non-parametric coordinates.

mtllib ChineseFood.mtl
g default
v 0.866025 8.123788 5.396159
v 0.500000 8.123788 5.030133
v 0.000000 8.123788 4.896159
v -0.500000 8.123788 5.030133
v -0.866025 8.123788 5.396159
v -1.000000 8.123788 5.896159
v -0.866025 8.123788 6.396159
v -0.500000 8.123788 6.762184
v 0.000000 8.123788 6.896159
v 0.500000 8.123788 6.762184
v 0.866025 8.123788 6.396159
v 1.000000 8.123788 5.896159
v 0.433013 8.172998 5.646159
v 0.250000 8.172998 5.463146
v 0.000000 8.172998 5.396159
v -0.250000 8.172998 5.463146
v -0.433013 8.172998 5.646159
v -0.500000 8.172998 5.896159
v -0.433013 8.172998 6.146159
v -0.250000 8.172998 6.329171
v 0.000000 8.172998 6.396159
v 0.250000 8.172998 6.329171
v 0.433013 8.172998 6.146159
v 0.500000 8.172998 5.896159
v 0.000000 8.172998 5.896159
v 1.433516 8.368930 5.068518
v 0.827641 8.368930 4.462642
v 0.000000 8.368930 4.240877
v -0.827641 8.368930 4.462642
v -1.433516 8.368930 5.068518
v -1.655282 8.368930 5.896159
v -1.433516 8.368930 6.723800
v -0.827641 8.368930 7.329675
v 0.000000 8.368930 7.551441
v 0.827641 8.368930 7.329675
v 1.433516 8.368930 6.723800
v 1.655282 8.368930 5.896159
v 1.433516 8.453302 5.068518
v 0.827641 8.453302 4.462642
v 0.599458 8.453302 4.857868
v 1.038291 8.453302 5.296701
v 0.000000 8.453302 4.240877
v 0.000000 8.453302 4.697243
v -0.827641 8.453302 4.462642
v -0.599458 8.453302 4.857868
v -1.433516 8.453302 5.068518
v -1.038291 8.453302 5.296701
v -1.655282 8.453302 5.896159
v -1.198916 8.453302 5.896159
v -1.433516 8.453302 6.723800
v -1.038291 8.453302 6.495617
v -0.827641 8.453302 7.329675
v -0.599458 8.453302 6.934450
v 0.000000 8.453302 7.551441
v 0.000000 8.453302 7.095075
v 0.827641 8.453302 7.329675
v 0.599458 8.453302 6.934450
v 1.433516 8.453302 6.723800
v 1.038291 8.453302 6.495617
v 1.655282 8.453302 5.896159
v 1.198916 8.453302 5.896159
v 0.000000 8.894739 5.896159
vt 0.385682 0.840728
vt 0.385682 0.716685
vt 0.398328 0.716685
vt 0.398328 0.840728
vt 0.385682 0.592642
vt 0.398328 0.592642
vt 0.385682 0.931534
vt 0.398328 0.931534
vt 0.385682 0.501837
vt 0.398328 0.501837
vt 0.403974 0.840728
vt 0.403974 0.716685
vt 0.416619 0.716685
vt 0.416619 0.840728
vt 0.403974 0.592642
vt 0.416619 0.592642
vt 0.403974 0.931534
vt 0.416619 0.931534
vt 0.403974 0.501837
vt 0.416619 0.501837
vt 0.464767 0.374121
vt 0.373962 0.464926
vt 0.339763 0.405692
vt 0.405533 0.339922
vt 0.249919 0.498163
vt 0.249919 0.429765
vt 0.249919 0.250078
vt 0.498005 0.250078
vt 0.429607 0.250078
vt 0.125876 0.464926
vt 0.160075 0.405692
vt 0.464767 0.126035
vt 0.405533 0.160234
vt 0.035070 0.374121
vt 0.094305 0.339922
vt 0.373962 0.035229
vt 0.339763 0.094464
vt 0.001833 0.250078
vt 0.070231 0.250078
vt 0.249919 0.001992
vt 0.249919 0.070390
vt 0.035070 0.126035
vt 0.094305 0.160234
vt 0.125876 0.035229
vt 0.160075 0.094464
vt 0.595414 0.620127
vt 0.632882 0.685024
vt 0.605453 0.712454
vt 0.540555 0.674985
vt 0.670351 0.600047
vt 0.670351 0.674985
vt 0.670351 0.749922
vt 0.595414 0.749922
vt 0.520476 0.749922
vt 0.455503 0.625880
vt 0.546308 0.535074
vt 0.745289 0.620127
vt 0.707820 0.685024
vt 0.670351 0.501837
vt 0.605453 0.787391
vt 0.540555 0.824860
vt 0.422265 0.749922
vt 0.800147 0.674985
vt 0.735249 0.712454
vt 0.794394 0.535074
vt 0.632882 0.814820
vt 0.595414 0.879718
vt 0.455503 0.873965
vt 0.820226 0.749922
vt 0.745289 0.749922
vt 0.885200 0.625880
vt 0.670351 0.824860
vt 0.670351 0.899798
vt 0.546308 0.964771
vt 0.800147 0.824860
vt 0.735249 0.787391
vt 0.918437 0.749922
vt 0.707820 0.814820
vt 0.745289 0.879718
vt 0.670351 0.998008
vt 0.885200 0.873965
vt 0.794394 0.964771
vt 0.380036 0.501837
vt 0.380036 0.625880
vt 0.367391 0.625880
vt 0.367391 0.501837
vt 0.380036 0.749922
vt 0.367391 0.749922
vt 0.349099 0.749922
vt 0.349099 0.625880
vt 0.361745 0.625880
vt 0.361745 0.749922
vt 0.349099 0.501837
vt 0.361745 0.501837
vn 0.000000 1.000000 0.000000
vn 0.000000 1.000000 0.000000
vn 0.080646 0.986907 -0.139683
vn 0.139683 0.986907 -0.080646
vn 0.000000 1.000000 0.000000
vn 0.000000 0.986907 -0.161292
vn 0.000000 1.000000 0.000000
vn -0.080646 0.986907 -0.139683
vn 0.000000 1.000000 0.000000
vn -0.139683 0.986907 -0.080646
vn 0.000000 1.000000 0.000000
vn -0.161292 0.986907 0.000000
vn 0.000000 1.000000 0.000000
vn -0.139683 0.986907 0.080646
vn 0.000000 1.000000 0.000000
vn -0.080646 0.986907 0.139683
vn 0.000000 1.000000 0.000000
vn 0.000000 0.986907 0.161292
vn 0.000000 1.000000 0.000000
vn 0.080646 0.986907 0.139683
vn 0.000000 1.000000 0.000000
vn 0.139683 0.986907 0.080646
vn 0.000000 1.000000 0.000000
vn 0.161292 0.986907 0.000000
vn 0.000000 1.000000 0.000000
vn -0.084825 -0.995192 0.048974
vn -0.068618 -0.996856 0.039617
vn -0.039617 -0.996856 0.068618
vn -0.048974 -0.995192 0.084825
vn 0.000000 -0.996856 0.079233
vn 0.000000 -0.995192 0.097948
vn 0.039617 -0.996856 0.068618
vn 0.048974 -0.995192 0.084825
vn 0.068618 -0.996856 0.039617
vn 0.084825 -0.995192 0.048974
vn 0.079233 -0.996856 0.000000
vn 0.097948 -0.995192 0.000000
vn 0.068618 -0.996856 -0.039617
vn 0.084825 -0.995192 -0.048974
vn 0.039617 -0.996856 -0.068618
vn 0.048974 -0.995192 -0.084825
vn 0.000000 -0.996856 -0.079233
vn 0.000000 -0.995192 -0.097948
vn -0.039617 -0.996856 -0.068618
vn -0.048974 -0.995192 -0.084825
vn -0.068618 -0.996856 -0.039617
vn -0.084825 -0.995192 -0.048974
vn -0.079233 -0.996856 -0.000000
vn -0.097948 -0.995192 -0.000000
vn 0.000000 -1.000000 0.000000
vn 0.255377 -0.932505 -0.255377
vn 0.255377 -0.932505 -0.255377
vn 0.255377 -0.932505 -0.255377
vn 0.255377 -0.932505 -0.255377
vn 0.093474 -0.932505 -0.348851
vn 0.093474 -0.932505 -0.348851
vn 0.093474 -0.932505 -0.348851
vn 0.093474 -0.932505 -0.348851
vn -0.093474 -0.932505 -0.348851
vn -0.093474 -0.932505 -0.348851
vn -0.093474 -0.932505 -0.348851
vn -0.093474 -0.932505 -0.348851
vn -0.255377 -0.932505 -0.255377
vn -0.255377 -0.932505 -0.255377
vn -0.255377 -0.932505 -0.255377
vn -0.255377 -0.932505 -0.255377
vn -0.348851 -0.932505 -0.093475
vn -0.348851 -0.932505 -0.093475
vn -0.348851 -0.932505 -0.093475
vn -0.348851 -0.932505 -0.093475
vn -0.348851 -0.932505 0.093475
vn -0.348851 -0.932505 0.093475
vn -0.348851 -0.932505 0.093475
vn -0.348851 -0.932505 0.093475
vn -0.255377 -0.932505 0.255377
vn -0.255377 -0.932505 0.255377
vn -0.255377 -0.932505 0.255377
vn -0.255377 -0.932505 0.255377
vn -0.093474 -0.932505 0.348851
vn -0.093474 -0.932505 0.348851
vn -0.093474 -0.932505 0.348851
vn -0.093474 -0.932505 0.348851
vn 0.093474 -0.932505 0.348851
vn 0.093474 -0.932505 0.348851
vn 0.093474 -0.932505 0.348851
vn 0.093474 -0.932505 0.348851
vn 0.255377 -0.932505 0.255377
vn 0.255377 -0.932505 0.255377
vn 0.255377 -0.932505 0.255377
vn 0.255377 -0.932505 0.255377
vn 0.348851 -0.932505 0.093475
vn 0.348851 -0.932505 0.093475
vn 0.348851 -0.932505 0.093475
vn 0.348851 -0.932505 0.093475
vn 0.348851 -0.932505 -0.093475
vn 0.348851 -0.932505 -0.093475
vn 0.348851 -0.932505 -0.093475
vn 0.348851 -0.932505 -0.093475
vn 0.707107 0.000000 -0.707107
vn 0.707107 0.000000 -0.707107
vn 0.707107 0.000000 -0.707107
vn 0.707107 0.000000 -0.707107
vn 0.258819 0.000000 -0.965926
vn 0.258819 0.000000 -0.965926
vn 0.258819 0.000000 -0.965926
vn 0.258819 0.000000 -0.965926
vn -0.258819 0.000000 -0.965926
vn -0.258819 0.000000 -0.965926
vn -0.258819 0.000000 -0.965926
vn -0.258819 0.000000 -0.965926
vn -0.707107 0.000000 -0.707107
vn -0.707107 0.000000 -0.707107
vn -0.707107 0.000000 -0.707107
vn -0.707107 0.000000 -0.707107
vn -0.965926 0.000000 -0.258819
vn -0.965926 0.000000 -0.258819
vn -0.965926 0.000000 -0.258819
vn -0.965926 0.000000 -0.258819
vn -0.965926 0.000000 0.258819
vn -0.965926 0.000000 0.258819
vn -0.965926 0.000000 0.258819
vn -0.965926 0.000000 0.258819
vn -0.707107 0.000000 0.707107
vn -0.707107 0.000000 0.707107
vn -0.707107 0.000000 0.707107
vn -0.707107 0.000000 0.707107
vn -0.258819 0.000000 0.965926
vn -0.258819 0.000000 0.965926
vn -0.258819 0.000000 0.965926
vn -0.258819 0.000000 0.965926
vn 0.258819 0.000000 0.965926
vn 0.258819 0.000000 0.965926
vn 0.258819 0.000000 0.965926
vn 0.258819 0.000000 0.965926
vn 0.707107 0.000000 0.707107
vn 0.707107 0.000000 0.707107
vn 0.707107 0.000000 0.707107
vn 0.707107 0.000000 0.707107
vn 0.965926 0.000000 0.258819
vn 0.965926 0.000000 0.258819
vn 0.965926 0.000000 0.258819
vn 0.965926 0.000000 0.258819
vn 0.965926 0.000000 -0.258819
vn 0.965926 0.000000 -0.258819
vn 0.965926 0.000000 -0.258819
vn 0.965926 0.000000 -0.258819
s 1
g pCylinder2
usemtl initialShadingGroup
f 38/21/1 39/22/2 40/23/3 41/24/4
f 39/22/2 42/25/5 43/26/6 40/23/3
f 42/25/5 44/30/7 45/31/8 43/26/6
f 44/30/7 46/34/9 47/35/10 45/31/8
f 46/34/9 48/38/11 49/39/12 47/35/10
f 48/38/11 50/42/13 51/43/14 49/39/12
f 50/42/13 52/44/15 53/45/16 51/43/14
f 52/44/15 54/40/17 55/41/18 53/45/16
f 54/40/17 56/36/19 57/37/20 55/41/18
f 56/36/19 58/32/21 59/33/22 57/37/20
f 58/32/21 60/28/23 61/29/24 59/33/22
f 60/28/23 38/21/1 41/24/4 61/29/24
f 41/24/4 40/23/3 62/27/25
f 40/23/3 43/26/6 62/27/25
f 43/26/6 45/31/8 62/27/25
f 45/31/8 47/35/10 62/27/25
f 47/35/10 49/39/12 62/27/25
f 49/39/12 51/43/14 62/27/25
f 51/43/14 53/45/16 62/27/25
f 53/45/16 55/41/18 62/27/25
f 55/41/18 57/37/20 62/27/25
f 57/37/20 59/33/22 62/27/25
f 59/33/22 61/29/24 62/27/25
f 61/29/24 41/24/4 62/27/25
s 2
f 1/46/26 13/47/27 14/48/28 2/49/29
f 2/49/29 14/48/28 15/53/30 3/54/31
f 3/54/31 15/53/30 16/60/32 4/61/33
f 4/61/33 16/60/32 17/66/34 5/67/35
f 5/67/35 17/66/34 18/72/36 6/73/37
f 6/73/37 18/72/36 19/78/38 7/79/39
f 7/79/39 19/78/38 20/76/40 8/75/41
f 8/75/41 20/76/40 21/70/42 9/69/43
f 9/69/43 21/70/42 22/64/44 10/63/45
f 10/63/45 22/64/44 23/58/46 11/57/47
f 11/57/47 23/58/46 24/51/48 12/50/49
f 12/50/49 24/51/48 13/47/27 1/46/26
f 13/47/27 25/52/50 14/48/28
f 14/48/28 25/52/50 15/53/30
f 15/53/30 25/52/50 16/60/32
f 16/60/32 25/52/50 17/66/34
f 17/66/34 25/52/50 18/72/36
f 18/72/36 25/52/50 19/78/38
f 19/78/38 25/52/50 20/76/40
f 20/76/40 25/52/50 21/70/42
f 21/70/42 25/52/50 22/64/44
f 22/64/44 25/52/50 23/58/46
f 23/58/46 25/52/50 24/51/48
f 24/51/48 25/52/50 13/47/27
s off
f 1/46/51 2/49/52 27/55/53 26/56/54
f 2/49/55 3/54/56 28/62/57 27/55/58
f 3/54/59 4/61/60 29/68/61 28/62/62
f 4/61/63 5/67/64 30/74/65 29/68/66
f 5/67/67 6/73/68 31/80/69 30/74/70
f 6/73/71 7/79/72 32/82/73 31/80/74
f 7/79/75 8/75/76 33/81/77 32/82/78
f 8/75/79 9/69/80 34/77/81 33/81/82
f 9/69/83 10/63/84 35/71/85 34/77/86
f 10/63/87 11/57/88 36/65/89 35/71/90
f 11/57/91 12/50/92 37/59/93 36/65/94
f 12/50/95 1/46/96 26/56/97 37/59/98
f 26/15/99 27/19/100 39/20/101 38/16/102
f 27/83/103 28/84/104 42/85/105 39/86/106
f 28/84/107 29/87/108 44/88/109 42/85/110
f 29/7/111 30/1/112 46/4/113 44/8/114
f 30/1/115 31/2/116 48/3/117 46/4/118
f 31/2/119 32/5/120 50/6/121 48/3/122
f 32/5/123 33/9/124 52/10/125 50/6/126
f 33/89/127 34/90/128 54/91/129 52/92/130
f 34/90/131 35/93/132 56/94/133 54/91/134
f 35/17/135 36/11/136 58/14/137 56/18/138
f 36/11/139 37/12/140 60/13/141 58/14/142
f 37/12/143 26/15/144 38/16/145 60/13/146
