# This file uses centimeters as units for non-parametric coordinates.

mtllib Door.mtl
g default
v -12.921067 0.105309 3.040719
v -12.493172 0.105309 3.040719
v -12.921067 13.059560 3.040719
v -12.493172 13.059560 3.040719
v -12.921067 13.059560 -3.040719
v -12.493172 13.059560 -3.040719
v -12.921067 0.105309 -3.040719
v -12.493172 0.105309 -3.040719
v -12.921067 13.059560 -1.500000
v -12.921067 0.105309 -1.500000
v -12.493172 0.105309 -1.500000
v -12.493172 13.059560 -1.500000
v -12.921067 13.059560 1.500000
v -12.921067 0.105309 1.500000
v -12.493172 0.105309 1.500000
v -12.493172 13.059560 1.500000
v -12.921067 11.694908 -3.040719
v -12.921067 11.694908 -1.500000
v -12.921067 11.694908 1.500000
v -12.921067 11.694908 3.040719
v -12.493172 11.694908 3.040719
v -12.493172 11.694908 1.500000
v -12.493172 11.694908 -1.500000
v -12.493172 11.694908 -3.040719
v -12.921067 7.794976 -3.040719
v -12.921067 7.794976 -1.500000
v -12.921067 7.794976 1.500000
v -12.921067 7.794976 3.040719
v -12.493172 7.794976 3.040719
v -12.493172 7.794976 1.500000
v -12.493172 7.794976 -1.500000
v -12.493172 7.794976 -3.040719
v -12.921067 6.655115 1.500000
v -12.921067 6.655115 3.040719
v -12.493172 6.655115 3.040719
v -12.493172 6.655115 1.500000
v -12.493172 6.655115 -1.500000
v -12.493172 6.655115 -3.040719
v -12.921067 6.655115 -3.040719
v -12.921067 6.655115 -1.500000
v -12.921067 7.270564 1.500000
v -12.921067 7.270564 3.040719
v -12.493172 7.270564 3.040719
v -12.493172 7.270564 1.500000
v -12.493172 7.270564 -1.500000
v -12.493172 7.270564 -3.040719
v -12.921067 7.270564 -3.040719
v -12.921067 7.270564 -1.500000
v -12.921067 7.270564 2.525743
v -12.921067 7.794976 2.525743
v -12.921067 11.694908 2.525743
v -12.921067 13.059560 2.525743
v -12.493172 13.059560 2.525743
v -12.493172 11.694908 2.525743
v -12.493172 7.794976 2.525743
v -12.493172 7.270564 2.525743
v -12.493172 6.655115 2.525743
v -12.493172 0.105309 2.525743
v -12.921067 0.105309 2.525743
v -12.921067 6.655115 2.525743
v -13.050963 6.849709 1.998121
v -13.050963 6.849709 2.375220
v -13.050963 7.075970 2.375220
v -13.050963 7.075970 1.998121
v -13.344349 6.849709 1.998121
v -13.344349 6.849709 2.375220
v -13.344349 7.075970 2.375220
v -13.344349 7.075970 1.998121
v -13.440857 6.849709 1.998121
v -13.440857 6.849709 2.375220
v -13.440857 7.075970 2.375220
v -13.440857 7.075970 1.998121
v -13.344349 7.032416 1.312279
v -13.344349 6.893263 1.312279
v -13.440857 6.893263 1.312279
v -13.440857 7.032416 1.312279
vt 0.130687 0.624577
vt 0.180157 0.624577
vt 0.180157 0.655474
vt 0.130687 0.655474
vt 0.130687 0.536279
vt 0.180157 0.536279
vt 0.324841 0.624577
vt 0.324841 0.655474
vt 0.105851 0.624577
vt 0.105851 0.655474
vt 0.130687 0.524406
vt 0.180157 0.524406
vt 0.105851 0.536279
vt 0.399147 0.624577
vt 0.399147 0.655474
vt 0.130687 0.510472
vt 0.180157 0.510472
vt 0.324841 0.536279
vt 0.324841 0.524406
vt 0.105851 0.524406
vt 0.399147 0.536279
vt 0.130687 0.362178
vt 0.180157 0.362178
vt 0.324841 0.510472
vt 0.105851 0.510472
vt 0.399147 0.524406
vt 0.324841 0.362178
vt 0.105851 0.362178
vt 0.399147 0.510472
vt 0.399147 0.362178
vt 0.220982 0.921864
vt 0.270451 0.921864
vt 0.270451 0.952761
vt 0.220982 0.952761
vt 0.220982 0.833566
vt 0.270451 0.833566
vt 0.295288 0.921864
vt 0.295288 0.952761
vt 0.076298 0.921864
vt 0.076298 0.952761
vt 0.220982 0.821693
vt 0.270451 0.821693
vt 0.295288 0.833566
vt 0.001992 0.921864
vt 0.001992 0.952761
vt 0.295288 0.821693
vt 0.076298 0.821693
vt 0.076298 0.833566
vt 0.001992 0.833566
vt 0.270451 0.807759
vt 0.295288 0.807759
vt 0.076298 0.807759
vt 0.220982 0.807759
vt 0.001992 0.821693
vt 0.270451 0.659465
vt 0.295288 0.659465
vt 0.076298 0.659465
vt 0.220982 0.659465
vt 0.001992 0.807759
vt 0.001992 0.659465
vt 0.828543 0.614665
vt 0.828543 0.596478
vt 0.833666 0.596478
vt 0.833666 0.614665
vt 0.832679 0.647742
vt 0.829529 0.647742
vt 0.845359 0.629555
vt 0.840236 0.629555
vt 0.841223 0.596478
vt 0.844373 0.596478
vt 0.481129 0.295199
vt 0.481129 0.001902
vt 0.530599 0.001902
vt 0.530599 0.295199
vt 0.456293 0.295199
vt 0.456293 0.001902
vt 0.675282 0.001902
vt 0.675282 0.295199
vt 0.749588 0.001902
vt 0.749588 0.295199
vt 0.624271 0.592487
vt 0.624271 0.299190
vt 0.673741 0.299190
vt 0.673741 0.592487
vt 0.479588 0.592487
vt 0.479588 0.299190
vt 0.698577 0.299190
vt 0.698577 0.592487
vt 0.405282 0.592487
vt 0.405282 0.299190
vt 0.447009 0.952762
vt 0.302326 0.952762
vt 0.302326 0.659466
vt 0.447009 0.659466
vt 0.790025 0.889775
vt 0.645341 0.889775
vt 0.645341 0.596478
vt 0.790025 0.596478
vt 0.011045 0.001902
vt 0.060515 0.001902
vt 0.053256 0.090938
vt 0.035069 0.090938
vt 0.053256 0.292037
vt 0.035069 0.292037
vt 0.053256 0.358187
vt 0.035069 0.358187
vt 0.001992 0.358187
vt 0.001992 0.292037
vt 0.089890 0.001902
vt 0.139359 0.001902
vt 0.115336 0.090938
vt 0.097149 0.090938
vt 0.115336 0.292037
vt 0.097149 0.292037
vt 0.115336 0.358187
vt 0.097149 0.358187
vt 0.148412 0.292037
vt 0.148412 0.358187
vt 0.418553 0.295198
vt 0.418553 0.001902
vt 0.449450 0.001902
vt 0.449450 0.295198
vt 0.330255 0.295198
vt 0.330255 0.001902
vt 0.318382 0.295198
vt 0.318382 0.001902
vt 0.304447 0.295198
vt 0.304447 0.001902
vt 0.156154 0.295198
vt 0.156154 0.001902
vt 0.704713 0.592487
vt 0.704713 0.299189
vt 0.735609 0.299189
vt 0.735609 0.592487
vt 0.823907 0.299189
vt 0.823907 0.592487
vt 0.835781 0.299189
vt 0.835781 0.592487
vt 0.849714 0.299189
vt 0.849714 0.592487
vt 0.998008 0.299189
vt 0.998008 0.592487
vt 0.542642 0.889775
vt 0.454344 0.889775
vt 0.454344 0.596478
vt 0.542642 0.596478
vt 0.638140 0.889775
vt 0.549843 0.889775
vt 0.549843 0.596478
vt 0.638140 0.596478
vt 0.068451 0.001902
vt 0.082386 0.001902
vt 0.077980 0.090938
vt 0.072857 0.090938
vt 0.077980 0.292037
vt 0.072857 0.292037
vt 0.077980 0.358187
vt 0.072857 0.358187
vt 0.797360 0.596478
vt 0.811293 0.596478
vt 0.806888 0.685514
vt 0.801766 0.685514
vt 0.806888 0.886613
vt 0.801766 0.886613
vt 0.818798 0.596479
vt 0.821949 0.596479
vt 0.821949 0.662629
vt 0.818798 0.662629
vn 0.000000 0.000000 1.000000
vn 0.000000 0.000000 1.000000
vn 0.000000 0.000000 1.000000
vn 0.000000 0.000000 1.000000
vn 0.000000 1.000000 0.000000
vn 0.000000 1.000000 0.000000
vn 0.000000 1.000000 0.000000
vn 0.000000 1.000000 0.000000
vn 0.000000 0.000000 -1.000000
vn 0.000000 0.000000 -1.000000
vn 0.000000 0.000000 -1.000000
vn 0.000000 0.000000 -1.000000
vn 0.000000 -1.000000 0.000000
vn 0.000000 -1.000000 0.000000
vn 0.000000 -1.000000 0.000000
vn 0.000000 -1.000000 0.000000
vn 1.000000 0.000000 0.000000
vn 1.000000 0.000000 0.000000
vn 1.000000 0.000000 0.000000
vn 1.000000 0.000000 0.000000
vn -1.000000 0.000000 0.000000
vn -1.000000 0.000000 0.000000
vn -1.000000 0.000000 0.000000
vn -1.000000 0.000000 0.000000
vn -1.000000 0.000000 0.000000
vn -1.000000 0.000000 0.000000
vn -1.000000 0.000000 0.000000
vn -1.000000 0.000000 0.000000
vn 0.000000 -1.000000 0.000000
vn 0.000000 -1.000000 0.000000
vn 0.000000 -1.000000 0.000000
vn 0.000000 -1.000000 0.000000
vn 1.000000 0.000000 0.000000
vn 1.000000 0.000000 0.000000
vn 1.000000 0.000000 0.000000
vn 1.000000 0.000000 0.000000
vn 0.000000 1.000000 0.000000
vn 0.000000 1.000000 0.000000
vn 0.000000 1.000000 0.000000
vn 0.000000 1.000000 0.000000
vn -1.000000 0.000000 0.000000
vn -1.000000 0.000000 0.000000
vn -1.000000 0.000000 0.000000
vn -1.000000 -0.000000 0.000000
vn 0.000000 0.000000 1.000000
vn 0.000000 0.000000 1.000000
vn 1.000000 0.000000 0.000000
vn 1.000000 0.000000 0.000000
vn 1.000000 0.000000 0.000000
vn 1.000000 0.000000 0.000000
vn 0.000000 0.000000 -1.000000
vn 0.000000 0.000000 -1.000000
vn -1.000000 0.000000 0.000000
vn -1.000000 0.000000 0.000000
vn -1.000000 0.000000 0.000000
vn -1.000000 -0.000000 0.000000
vn 0.000000 0.000000 1.000000
vn 0.000000 0.000000 1.000000
vn 1.000000 0.000000 0.000000
vn 1.000000 0.000000 0.000000
vn 1.000000 0.000000 0.000000
vn 1.000000 0.000000 0.000000
vn 0.000000 0.000000 -1.000000
vn 0.000000 0.000000 -1.000000
vn 0.000000 -1.000000 0.000000
vn 0.000000 -1.000000 0.000000
vn 0.000000 -1.000000 0.000000
vn 0.000000 -1.000000 0.000000
vn 0.000000 0.000000 -1.000000
vn 0.000000 0.000000 -1.000000
vn 0.000000 0.000000 -1.000000
vn 0.000000 0.000000 -1.000000
vn 0.000000 0.000000 1.000000
vn 0.000000 0.000000 1.000000
vn 0.000000 0.000000 1.000000
vn 0.000000 0.000000 1.000000
vn 0.000000 1.000000 0.000000
vn 0.000000 1.000000 0.000000
vn 0.000000 1.000000 0.000000
vn 0.000000 1.000000 0.000000
vn -1.000000 0.000000 0.000000
vn -1.000000 0.000000 0.000000
vn -1.000000 0.000000 0.000000
vn -1.000000 0.000000 0.000000
vn 0.000000 0.000000 1.000000
vn 0.000000 0.000000 1.000000
vn 0.000000 0.000000 1.000000
vn 0.000000 0.000000 1.000000
vn 1.000000 0.000000 0.000000
vn 1.000000 0.000000 0.000000
vn 1.000000 0.000000 0.000000
vn 1.000000 0.000000 0.000000
vn 1.000000 0.000000 0.000000
vn 1.000000 0.000000 0.000000
vn 1.000000 0.000000 0.000000
vn 1.000000 0.000000 0.000000
vn 0.000000 0.000000 -1.000000
vn 0.000000 0.000000 -1.000000
vn 0.000000 0.000000 -1.000000
vn 0.000000 0.000000 -1.000000
vn -1.000000 0.000000 0.000000
vn -1.000000 0.000000 0.000000
vn -1.000000 0.000000 0.000000
vn -1.000000 0.000000 0.000000
vn -1.000000 0.000000 0.000000
vn -1.000000 0.000000 0.000000
vn -1.000000 0.000000 0.000000
vn -1.000000 0.000000 0.000000
vn -1.000000 -0.000000 0.000000
vn -1.000000 -0.000000 0.000000
vn -1.000000 0.000000 0.000000
vn -1.000000 0.000000 0.000000
vn 0.000000 1.000000 0.000000
vn 0.000000 1.000000 0.000000
vn 1.000000 0.000000 0.000000
vn 1.000000 0.000000 0.000000
vn 1.000000 0.000000 0.000000
vn 1.000000 0.000000 0.000000
vn 1.000000 0.000000 0.000000
vn 1.000000 0.000000 0.000000
vn 0.000000 -1.000000 0.000000
vn 0.000000 -1.000000 0.000000
vn -1.000000 0.000000 0.000000
vn -1.000000 0.000000 0.000000
vn -0.831721 -0.555194 0.000000
vn -0.831721 -0.555194 0.000000
vn -0.831721 -0.555194 0.000000
vn -0.831721 -0.555194 0.000000
vn -0.757075 0.000000 0.653328
vn -0.757075 0.000000 0.653328
vn -0.757075 0.000000 0.653328
vn -0.757075 0.000000 0.653328
vn -0.831721 0.555194 0.000000
vn -0.831721 0.555194 0.000000
vn -0.831721 0.555194 0.000000
vn -0.831721 0.555194 0.000000
vn -0.967640 0.000000 -0.252334
vn -0.967640 0.000000 -0.252334
vn -0.967640 0.000000 -0.252334
vn -0.967640 0.000000 -0.252334
vn 0.000000 -1.000000 0.000000
vn 0.000000 -1.000000 0.000000
vn 0.000000 -1.000000 0.000000
vn 0.000000 -1.000000 0.000000
vn 0.000000 0.000000 1.000000
vn 0.000000 0.000000 1.000000
vn 0.000000 0.000000 1.000000
vn 0.000000 0.000000 1.000000
vn 0.000000 1.000000 0.000000
vn 0.000000 1.000000 0.000000
vn 0.000000 1.000000 0.000000
vn 0.000000 1.000000 0.000000
vn 0.000000 0.000000 -1.000000
vn 0.000000 0.000000 -1.000000
vn 0.000000 0.000000 -1.000000
vn 0.000000 0.000000 -1.000000
vn 0.000000 -1.000000 0.000000
vn 0.000000 -1.000000 0.000000
vn 0.000000 -1.000000 0.000000
vn 0.000000 -1.000000 0.000000
vn 0.000000 0.000000 1.000000
vn 0.000000 0.000000 1.000000
vn 0.000000 0.000000 1.000000
vn 0.000000 0.000000 1.000000
vn 0.000000 1.000000 0.000000
vn 0.000000 1.000000 0.000000
vn 0.000000 1.000000 0.000000
vn 0.000000 1.000000 0.000000
vn 0.000000 0.000000 -1.000000
vn 0.000000 0.000000 -1.000000
vn 0.000000 0.000000 -1.000000
vn 0.000000 0.000000 -1.000000
vn 1.000000 0.000000 0.000000
vn 1.000000 0.000000 0.000000
vn 1.000000 0.000000 0.000000
vn 1.000000 0.000000 0.000000
vn 0.000000 -0.997990 -0.063377
vn 0.000000 -0.997990 -0.063377
vn 0.000000 -0.997990 -0.063377
vn 0.000000 -0.997990 -0.063377
vn -1.000000 0.000000 0.000000
vn -1.000000 0.000000 0.000000
vn -1.000000 0.000000 0.000000
vn -1.000000 0.000000 0.000000
vn 0.000000 0.997990 -0.063377
vn 0.000000 0.997990 -0.063377
vn 0.000000 0.997990 -0.063377
vn 0.000000 0.997990 -0.063377
s 1
g pCube14
usemtl initialShadingGroup
f 20/119/1 21/120/2 4/121/3 3/122/4
s 2
f 52/71/5 53/72/6 16/73/7 13/74/8
s 3
f 5/131/9 6/132/10 24/133/11 17/134/12
s 4
f 14/81/13 15/82/14 58/83/15 59/84/16
s 5
f 54/1/17 22/2/18 16/3/19 53/4/20
s 6
f 19/31/21 51/32/22 52/33/23 13/34/24
f 17/44/25 18/39/26 9/40/27 5/45/28
s 4
f 7/89/29 8/90/30 11/86/31 10/85/32
s 5
f 12/8/33 23/7/34 24/14/35 6/15/36
s 2
f 9/78/37 12/77/38 6/79/39 5/80/40
s 6
f 18/39/26 19/31/21 13/34/24 9/40/27
s 4
f 10/85/32 11/86/31 15/82/14 14/81/13
s 5
f 16/3/19 22/2/18 23/7/34 12/8/33
s 2
f 13/74/8 16/73/7 12/77/38 9/78/37
s 6
f 25/49/41 26/48/42 18/39/26 17/44/25
f 27/35/43 50/36/44 51/32/22 19/31/21
s 1
f 28/123/45 29/124/46 21/120/2 20/119/1
s 5
f 55/5/47 30/6/48 22/2/18 54/1/17
f 24/14/35 23/7/34 31/18/49 32/21/50
s 3
f 17/134/12 24/133/11 32/135/51 25/136/52
s 6
f 47/54/53 48/47/54 26/48/42 25/49/41
f 48/47/54 41/41/55 27/35/43 26/48/42
f 41/41/55 49/42/56 50/36/44 27/35/43
s 1
f 42/125/57 43/126/58 29/124/46 28/123/45
s 5
f 56/11/59 44/12/60 30/6/48 55/5/47
f 31/18/49 30/6/48 44/12/60 45/19/61
f 32/21/50 31/18/49 45/19/61 46/26/62
s 3
f 25/136/52 32/135/51 46/137/63 47/138/64
s off
f 19/91/65 18/92/66 23/93/67 22/94/68
f 27/143/69 19/144/70 22/145/71 30/146/72
f 18/147/73 26/148/74 31/149/75 23/150/76
f 26/95/77 27/96/78 30/97/79 31/98/80
s 6
f 14/58/81 59/55/82 60/50/83 33/53/84
s 1
f 1/129/85 2/130/86 35/128/87 34/127/88
s 5
f 58/22/89 15/23/90 36/17/91 57/16/92
f 37/24/93 36/17/91 15/23/90 11/27/94
f 38/29/95 37/24/93 11/27/94 8/30/96
s 3
f 39/140/97 38/139/98 8/141/99 7/142/100
s 6
f 7/60/101 10/57/102 40/52/103 39/59/104
f 10/57/102 14/58/81 33/53/84 40/52/103
s off
f 69/61/105 70/62/106 71/63/107 72/64/108
s 1
f 34/127/88 35/128/87 43/126/58 42/125/57
s 5
f 57/16/92 36/17/91 44/12/60 56/11/59
f 45/19/61 44/12/60 36/17/91 37/24/93
f 46/26/62 45/19/61 37/24/93 38/29/95
s 3
f 47/138/64 46/137/63 38/139/98 39/140/97
s 6
f 39/59/104 40/52/103 48/47/54 47/54/53
f 40/52/103 33/53/84 41/41/55 48/47/54
f 49/42/56 42/46/109 28/43/110 50/36/44
f 51/32/22 50/36/44 28/43/110 20/37/111
f 52/33/23 51/32/22 20/37/111 3/38/112
s 2
f 3/75/113 4/76/114 53/72/6 52/71/5
s 5
f 21/9/115 54/1/17 53/4/20 4/10/116
f 29/13/117 55/5/47 54/1/17 21/9/115
f 43/20/118 56/11/59 55/5/47 29/13/117
f 35/25/119 57/16/92 56/11/59 43/20/118
f 2/28/120 58/22/89 57/16/92 35/25/119
s 4
f 59/84/16 58/83/15 2/87/121 1/88/122
s 6
f 60/50/83 59/55/82 1/56/123 34/51/124
f 49/42/56 60/50/83 34/51/124 42/46/109
s off
f 33/99/125 60/100/126 62/101/127 61/102/128
f 60/151/129 49/152/130 63/153/131 62/154/132
f 49/109/133 41/110/134 64/111/135 63/112/136
f 41/159/137 33/160/138 61/161/139 64/162/140
f 61/102/141 62/101/142 66/103/143 65/104/144
f 62/154/145 63/153/146 67/155/147 66/156/148
f 63/112/149 64/111/150 68/113/151 67/114/152
f 64/162/153 61/161/154 65/163/155 68/164/156
f 65/104/157 66/103/158 70/105/159 69/106/160
f 66/156/161 67/155/162 71/157/163 70/158/164
f 67/114/165 68/113/166 72/115/167 71/116/168
f 73/165/169 74/166/170 75/167/171 76/168/172
f 68/67/173 65/68/174 74/69/175 73/70/176
f 65/104/177 69/106/178 75/107/179 74/108/180
f 69/61/181 72/64/182 76/65/183 75/66/184
f 72/115/185 68/113/186 73/117/187 76/118/188
