# This file uses centimeters as units for non-parametric coordinates.

mtllib LunchBag.mtl
g default
v -0.536137 6.122281 0.840431
v 0.536137 6.122281 0.840431
v -0.536137 8.052445 0.840431
v 0.536137 8.052445 0.840431
v -0.536137 8.052445 -0.840431
v 0.536137 8.052445 -0.840431
v -0.536137 6.122281 -0.840431
v 0.536137 6.122281 -0.840431
v -0.628078 7.359310 0.984556
v -0.628078 7.359310 -0.984556
v 0.628078 7.359310 -0.984556
v 0.628078 7.359310 0.984556
v -0.628078 7.187442 -0.984556
v -0.628078 7.187442 0.984556
v 0.628078 7.187442 0.984556
v 0.628078 7.187442 -0.984556
v -0.577504 7.187442 0.931841
v 0.577504 7.187442 0.931841
v 0.577504 7.273989 0.931841
v -0.577504 7.273989 0.931841
v -0.577504 7.273989 -0.931841
v 0.577504 7.273989 -0.931841
v 0.577504 7.187442 -0.931841
v -0.577504 7.187442 -0.931841
v -0.577504 7.359310 0.931841
v -0.577504 7.359310 -0.931841
v 0.577504 7.359310 -0.931841
v 0.577504 7.359310 0.931841
v 0.628078 7.988919 -0.984556
v -0.628078 7.988919 -0.984556
v -0.628078 7.988919 0.984556
v 0.628078 7.988919 0.984556
v -0.628078 6.181218 -0.984556
v -0.628078 6.181218 0.984556
v 0.628078 6.181218 0.984556
v 0.628078 6.181218 -0.984556
vt 0.423161 0.907005
vt 0.423161 0.618814
vt 0.436544 0.618814
vt 0.436544 0.907005
vt 0.449737 0.618814
vt 0.449737 0.907005
vt 0.456293 0.907005
vt 0.456293 0.618814
vt 0.469676 0.618814
vt 0.469676 0.907005
vt 0.482870 0.618814
vt 0.482870 0.907005
vt 0.625852 0.306337
vt 0.625852 0.001843
vt 0.781449 0.001843
vt 0.781449 0.306337
vt 0.842410 0.614823
vt 0.842410 0.310328
vt 0.998008 0.310328
vt 0.998008 0.614823
vt 0.107430 0.923308
vt 0.107430 0.618814
vt 0.204790 0.618814
vt 0.204790 0.923308
vt 0.317917 0.923308
vt 0.317917 0.618814
vt 0.415277 0.618814
vt 0.415277 0.923308
vt 0.024279 0.024130
vt 0.284199 0.024130
vt 0.284199 0.284050
vt 0.024279 0.284050
vt 0.001992 0.001843
vt 0.306486 0.001843
vt 0.306486 0.306337
vt 0.001992 0.306337
vt 0.336306 0.024130
vt 0.596227 0.024130
vt 0.596227 0.284050
vt 0.336306 0.284050
vt 0.314019 0.001843
vt 0.618513 0.001843
vt 0.618513 0.306337
vt 0.314019 0.306337
vt 0.370048 0.310328
vt 0.674542 0.310328
vt 0.662283 0.318480
vt 0.382307 0.318480
vt 0.674542 0.614823
vt 0.662283 0.606671
vt 0.370048 0.614823
vt 0.382307 0.606671
vt 0.059419 0.614823
vt 0.059419 0.310328
vt 0.071678 0.318480
vt 0.071678 0.606671
vt 0.363913 0.310328
vt 0.351653 0.318480
vt 0.363913 0.614823
vt 0.351653 0.606671
vt 0.489425 0.898790
vt 0.489425 0.618814
vt 0.502808 0.618814
vt 0.502808 0.898790
vt 0.516002 0.618814
vt 0.516002 0.898790
vt 0.535751 0.898790
vt 0.535751 0.618814
vt 0.549134 0.618814
vt 0.549134 0.898790
vt 0.522557 0.898790
vt 0.522557 0.618814
vt 0.787615 0.306337
vt 0.787615 0.001843
vt 0.943213 0.001843
vt 0.943213 0.306337
vt 0.680677 0.614822
vt 0.680677 0.310329
vt 0.836275 0.310329
vt 0.836275 0.614822
vt 0.001992 0.923308
vt 0.001992 0.618814
vt 0.099352 0.618814
vt 0.099352 0.923308
vt 0.212674 0.923308
vt 0.212674 0.618814
vt 0.310033 0.618814
vt 0.310033 0.923308
vn 0.000000 0.000000 1.000000
vn 0.000000 0.000000 1.000000
vn 0.000000 0.000000 1.000000
vn 0.000000 0.000000 1.000000
vn 0.000000 1.000000 0.000000
vn 0.000000 1.000000 0.000000
vn 0.000000 1.000000 0.000000
vn 0.000000 1.000000 0.000000
vn 0.000000 0.000000 -1.000000
vn 0.000000 0.000000 -1.000000
vn 0.000000 0.000000 -1.000000
vn 0.000000 0.000000 -1.000000
vn 0.000000 -1.000000 0.000000
vn 0.000000 -1.000000 0.000000
vn 0.000000 -1.000000 0.000000
vn 0.000000 -1.000000 0.000000
vn 1.000000 0.000000 0.000000
vn 1.000000 0.000000 0.000000
vn 1.000000 0.000000 0.000000
vn 1.000000 0.000000 0.000000
vn -1.000000 0.000000 0.000000
vn -1.000000 0.000000 0.000000
vn -1.000000 0.000000 0.000000
vn -1.000000 0.000000 0.000000
vn -1.000000 0.000000 0.000000
vn -1.000000 0.000000 0.000000
vn 0.000000 0.000000 -1.000000
vn 0.000000 0.000000 -1.000000
vn 1.000000 0.000000 0.000000
vn 1.000000 0.000000 0.000000
vn 0.000000 0.000000 1.000000
vn 0.000000 0.000000 1.000000
vn -0.997688 0.067967 0.000000
vn -0.997688 0.067967 0.000000
vn -0.568448 0.822719 0.000000
vn -0.568448 0.822719 0.000000
vn 0.000000 0.915055 -0.403329
vn 0.000000 0.915055 -0.403329
vn 0.000000 0.106187 -0.994346
vn 0.000000 0.106187 -0.994346
vn 0.997688 0.067967 0.000000
vn 0.997688 0.067967 0.000000
vn 0.568448 0.822719 0.000000
vn 0.568448 0.822719 0.000000
vn 0.000000 0.106187 0.994346
vn 0.000000 0.106187 0.994346
vn 0.000000 0.915055 0.403329
vn 0.000000 0.915055 0.403329
vn -0.999068 -0.043154 0.000000
vn -0.999068 -0.043154 0.000000
vn -1.000000 0.000000 0.000000
vn -1.000000 0.000000 0.000000
vn 0.000000 -0.067556 0.997716
vn 0.000000 -0.067556 0.997716
vn 0.000000 0.000000 1.000000
vn 0.000000 0.000000 1.000000
vn 0.999068 -0.043154 0.000000
vn 0.999068 -0.043154 0.000000
vn 1.000000 0.000000 0.000000
vn 1.000000 0.000000 0.000000
vn 0.000000 0.000000 -1.000000
vn 0.000000 0.000000 -1.000000
vn 0.000000 -0.067556 -0.997716
vn 0.000000 -0.067556 -0.997716
vn 0.000000 1.000000 -0.000000
vn 0.000000 1.000000 -0.000000
vn 0.000000 1.000000 -0.000000
vn 0.000000 1.000000 -0.000000
vn 0.000000 1.000000 0.000000
vn 0.000000 1.000000 0.000000
vn 0.000000 1.000000 0.000000
vn 0.000000 1.000000 0.000000
vn 0.000000 1.000000 0.000000
vn 0.000000 1.000000 0.000000
vn 0.000000 1.000000 0.000000
vn 0.000000 1.000000 0.000000
vn 0.000000 1.000000 0.000000
vn 0.000000 1.000000 0.000000
vn 0.000000 1.000000 0.000000
vn 0.000000 1.000000 0.000000
vn 0.000000 -1.000000 0.000000
vn 0.000000 -1.000000 0.000000
vn 0.000000 -1.000000 0.000000
vn 0.000000 -1.000000 0.000000
vn 0.000000 -1.000000 0.000000
vn 0.000000 -1.000000 0.000000
vn 0.000000 -1.000000 0.000000
vn 0.000000 -1.000000 0.000000
vn 0.000000 -1.000000 0.000000
vn 0.000000 -1.000000 0.000000
vn 0.000000 -1.000000 0.000000
vn 0.000000 -1.000000 0.000000
vn 0.000000 -1.000000 -0.000000
vn 0.000000 -1.000000 -0.000000
vn 0.000000 -1.000000 -0.000000
vn 0.000000 -1.000000 -0.000000
vn 0.000000 0.000000 -1.000000
vn 0.000000 0.000000 -1.000000
vn -1.000000 0.000000 0.000000
vn -1.000000 0.000000 0.000000
vn 0.000000 0.000000 1.000000
vn 0.000000 0.000000 1.000000
vn 1.000000 0.000000 0.000000
vn 1.000000 0.000000 0.000000
vn -0.539670 -0.841877 0.000000
vn -0.539670 -0.841877 0.000000
vn 0.000000 -0.925598 0.378508
vn 0.000000 -0.925598 0.378508
vn 0.539670 -0.841877 0.000000
vn 0.539670 -0.841877 0.000000
vn 0.000000 -0.925598 -0.378508
vn 0.000000 -0.925598 -0.378508
s 1
g pCube16
usemtl initialShadingGroup
f 17/61/1 18/62/2 19/63/3 20/64/4
s off
f 3/29/5 4/30/6 6/31/7 5/32/8
s 2
f 21/67/9 22/68/10 23/69/11 24/70/12
s off
f 7/37/13 8/38/14 2/39/15 1/40/16
s 3
f 18/1/17 23/2/18 22/3/19 19/4/20
s 4
f 24/7/21 17/8/22 20/9/23 21/10/24
f 21/10/24 20/9/23 25/11/25 26/12/26
s 2
f 26/71/27 27/72/28 22/68/10 21/67/9
s 3
f 19/4/20 22/3/19 27/5/29 28/6/30
s 1
f 20/64/4 19/63/3 28/65/31 25/66/32
s 5
f 30/36/33 31/33/34 3/29/35 5/32/36
s 6
f 5/32/37 6/31/38 29/35/39 30/36/40
s 7
f 32/34/41 29/35/42 6/31/43 4/30/44
s 8
f 31/33/45 32/34/46 4/30/47 3/29/48
s 9
f 33/13/49 34/14/50 14/15/51 13/16/52
s 10
f 34/73/53 35/74/54 15/75/55 14/76/56
s 11
f 35/17/57 36/18/58 16/19/59 15/20/60
s 12
f 13/77/61 16/78/62 36/79/63 33/80/64
s off
f 14/45/65 15/46/66 18/47/67 17/48/68
f 16/49/69 13/51/70 24/52/71 23/50/72
f 15/46/73 16/49/74 23/50/75 18/47/76
f 13/51/77 14/45/78 17/48/79 24/52/80
f 9/53/81 10/54/82 26/55/83 25/56/84
f 10/54/85 11/57/86 27/58/87 26/55/88
f 11/57/89 12/59/90 28/60/91 27/58/92
f 12/59/93 9/53/94 25/56/95 28/60/96
s 6
f 30/81/40 29/82/39 11/83/97 10/84/98
s 5
f 10/21/99 9/22/100 31/23/34 30/24/33
s 8
f 9/85/101 12/86/102 32/87/46 31/88/45
s 7
f 12/25/103 11/26/104 29/27/42 32/28/41
s 9
f 7/37/105 1/40/106 34/44/50 33/41/49
s 10
f 1/40/107 2/39/108 35/43/54 34/44/53
s 11
f 2/39/109 8/38/110 36/42/58 35/43/57
s 12
f 33/41/64 36/42/63 8/38/111 7/37/112
