# This file uses centimeters as units for non-parametric coordinates.

mtllib TrashCan.mtl
g default
v 11.511730 0.289239 17.370881
v 11.338083 0.289239 17.070113
v 11.072038 0.289239 16.846875
v 10.745687 0.289239 16.728093
v 10.398390 0.289239 16.728093
v 10.072038 0.289239 16.846875
v 9.805993 0.289239 17.070113
v 9.632345 0.289239 17.370881
v 9.572038 0.289239 17.712901
v 9.632345 0.289239 18.054921
v 9.805993 0.289239 18.355689
v 10.072038 0.289239 18.578927
v 10.398390 0.289239 18.697709
v 10.745686 0.289239 18.697709
v 11.072038 0.289239 18.578927
v 11.338083 0.289239 18.355689
v 11.511730 0.289239 18.054921
v 11.572038 0.289239 17.712901
v 11.942866 2.777318 17.213961
v 11.689548 2.777318 16.775200
v 11.301440 2.777318 16.449540
v 10.825358 2.777318 16.276259
v 10.318719 2.777318 16.276259
v 9.842636 2.777318 16.449540
v 9.454529 2.777318 16.775199
v 9.201210 2.777318 17.213959
v 9.113234 2.777318 17.712901
v 9.201210 2.777318 18.211840
v 9.454528 2.777318 18.650603
v 9.842635 2.777318 18.976262
v 10.318719 2.777318 19.149542
v 10.825357 2.777318 19.149542
v 11.301440 2.777318 18.976262
v 11.689547 2.777318 18.650603
v 11.942866 2.777318 18.211842
v 12.030842 2.777318 17.712901
v 11.885528 2.777318 17.712901
v 11.806316 2.777318 17.263662
v 11.578230 2.777318 16.868606
v 11.228783 2.777318 16.575385
v 10.800124 2.777318 16.419365
v 10.343952 2.777318 16.419365
v 9.915294 2.777318 16.575385
v 9.565845 2.777318 16.868604
v 9.337760 2.777318 17.263660
v 9.258548 2.777318 17.712901
v 9.337760 2.777318 18.162139
v 9.565845 2.777318 18.557198
v 9.915293 2.777318 18.850416
v 10.343952 2.777318 19.006436
v 10.800124 2.777318 19.006436
v 11.228783 2.777318 18.850416
v 11.578230 2.777318 18.557198
v 11.806316 2.777318 18.162141
v 11.351963 0.444732 17.712901
v 11.304929 0.444732 17.446152
v 11.169496 0.444732 17.211575
v 10.962001 0.444732 17.037466
v 10.707471 0.444732 16.944824
v 10.436605 0.444732 16.944824
v 10.182076 0.444732 17.037466
v 9.974580 0.444732 17.211573
v 9.839147 0.444732 17.446150
v 9.792113 0.444732 17.712901
v 9.839147 0.444732 17.979650
v 9.974580 0.444732 18.214228
v 10.182075 0.444732 18.388336
v 10.436605 0.444732 18.480977
v 10.707471 0.444732 18.480977
v 10.962001 0.444732 18.388336
v 11.169496 0.444732 18.214228
v 11.304929 0.444732 17.979651
vt 0.351049 0.111374
vt 0.351049 0.075610
vt 0.646902 0.040543
vt 0.646902 0.092715
vt 0.351049 0.049066
vt 0.646902 0.001819
vt 0.351049 0.152043
vt 0.646902 0.152043
vt 0.351049 0.192712
vt 0.646902 0.211371
vt 0.351049 0.228475
vt 0.646902 0.263543
vt 0.351049 0.255020
vt 0.646902 0.302267
vt 0.653137 0.228476
vt 0.653137 0.192712
vt 0.948989 0.211371
vt 0.948989 0.263543
vt 0.653137 0.152043
vt 0.948989 0.152043
vt 0.653137 0.255020
vt 0.948989 0.302267
vt 0.653137 0.111374
vt 0.948989 0.092715
vt 0.653137 0.075610
vt 0.948989 0.040543
vt 0.653137 0.049066
vt 0.948989 0.001819
vt 0.503551 0.583621
vt 0.450133 0.583621
vt 0.471832 0.306258
vt 0.503551 0.306258
vt 0.403158 0.583621
vt 0.443939 0.306258
vt 0.556969 0.583621
vt 0.535270 0.306258
vt 0.368291 0.583621
vt 0.423236 0.306258
vt 0.603945 0.583621
vt 0.563163 0.306258
vt 0.638811 0.583621
vt 0.583866 0.306258
vt 0.237645 0.911455
vt 0.190670 0.911455
vt 0.168970 0.634092
vt 0.196863 0.634092
vt 0.137252 0.911455
vt 0.137252 0.634092
vt 0.272511 0.911455
vt 0.217566 0.634092
vt 0.083834 0.911455
vt 0.105533 0.634092
vt 0.036858 0.911455
vt 0.077640 0.634092
vt 0.001992 0.911455
vt 0.056937 0.634092
vt 0.600421 0.613273
vt 0.636184 0.633921
vt 0.662729 0.665556
vt 0.676853 0.704362
vt 0.676853 0.745658
vt 0.662729 0.784464
vt 0.636184 0.816099
vt 0.600421 0.836747
vt 0.559752 0.843918
vt 0.519083 0.836747
vt 0.483319 0.816099
vt 0.456774 0.784464
vt 0.442650 0.745658
vt 0.442650 0.704362
vt 0.456774 0.665556
vt 0.483319 0.633921
vt 0.519083 0.613273
vt 0.559752 0.606102
vt 0.775651 0.606102
vt 0.807369 0.611695
vt 0.835262 0.627799
vt 0.855965 0.652471
vt 0.866981 0.682737
vt 0.866981 0.714945
vt 0.855965 0.745211
vt 0.835262 0.769884
vt 0.807369 0.785988
vt 0.775651 0.791580
vt 0.743932 0.785988
vt 0.716039 0.769884
vt 0.695336 0.745211
vt 0.684320 0.714945
vt 0.684320 0.682737
vt 0.695336 0.652471
vt 0.716039 0.627799
vt 0.743932 0.611695
vt 0.172820 0.001819
vt 0.232148 0.012280
vt 0.226238 0.028517
vt 0.172820 0.019098
vt 0.284320 0.042402
vt 0.273214 0.055638
vt 0.113492 0.012280
vt 0.119402 0.028517
vt 0.323044 0.088551
vt 0.308080 0.097190
vt 0.061320 0.042402
vt 0.072427 0.055638
vt 0.343648 0.145161
vt 0.326632 0.148161
vt 0.022597 0.088551
vt 0.037561 0.097190
vt 0.343648 0.205404
vt 0.326632 0.202404
vt 0.001992 0.145161
vt 0.019009 0.148161
vt 0.323044 0.262014
vt 0.308080 0.253375
vt 0.001992 0.205404
vt 0.019009 0.202404
vt 0.284320 0.308163
vt 0.273214 0.294927
vt 0.022597 0.262014
vt 0.037561 0.253375
vt 0.232148 0.338285
vt 0.226238 0.322048
vt 0.061320 0.308163
vt 0.072427 0.294927
vt 0.172820 0.348746
vt 0.172820 0.331467
vt 0.113492 0.338285
vt 0.119402 0.322048
vt 0.970730 0.602110
vt 0.931925 0.602110
vt 0.941398 0.306258
vt 0.998008 0.306258
vt 0.890628 0.602110
vt 0.881155 0.306258
vt 0.851822 0.602110
vt 0.824545 0.306258
vt 0.672224 0.306258
vt 0.711030 0.306258
vt 0.701556 0.602110
vt 0.644946 0.602110
vt 0.752326 0.306258
vt 0.761799 0.602110
vt 0.791132 0.306258
vt 0.818409 0.602110
vt 0.362156 0.630100
vt 0.311185 0.630100
vt 0.300168 0.352738
vt 0.330433 0.352738
vt 0.256943 0.630100
vt 0.267960 0.352738
vt 0.205972 0.630100
vt 0.237694 0.352738
vt 0.278938 0.634092
vt 0.329909 0.634092
vt 0.340926 0.911455
vt 0.310661 0.911455
vt 0.384152 0.634092
vt 0.373134 0.911455
vt 0.435123 0.634092
vt 0.403400 0.911455
vn 0.924113 -0.181344 -0.336349
vn 0.753344 -0.181344 -0.632130
vn 0.753344 -0.181344 -0.632130
vn 0.924113 -0.181344 -0.336349
vn 0.491710 -0.181343 -0.851666
vn 0.491711 -0.181343 -0.851666
vn 0.170769 -0.181343 -0.968479
vn 0.170769 -0.181343 -0.968480
vn -0.170769 -0.181343 -0.968480
vn -0.170769 -0.181343 -0.968479
vn -0.491709 -0.181343 -0.851667
vn -0.491709 -0.181343 -0.851667
vn -0.753343 -0.181344 -0.632131
vn -0.753343 -0.181344 -0.632131
vn -0.924112 -0.181344 -0.336349
vn -0.924112 -0.181344 -0.336349
vn -0.983420 -0.181344 0.000000
vn -0.983420 -0.181344 0.000000
vn -0.924113 -0.181344 0.336349
vn -0.924113 -0.181344 0.336349
vn -0.753344 -0.181344 0.632130
vn -0.753344 -0.181344 0.632130
vn -0.491709 -0.181344 0.851667
vn -0.491709 -0.181343 0.851667
vn -0.170769 -0.181343 0.968479
vn -0.170769 -0.181343 0.968480
vn 0.170769 -0.181343 0.968479
vn 0.170769 -0.181343 0.968480
vn 0.491709 -0.181343 0.851667
vn 0.491709 -0.181343 0.851667
vn 0.753343 -0.181344 0.632130
vn 0.753343 -0.181344 0.632130
vn 0.924112 -0.181344 0.336349
vn 0.924112 -0.181344 0.336349
vn 0.983420 -0.181344 -0.000000
vn 0.983420 -0.181344 0.000000
vn 0.000000 -1.000000 0.000000
vn 0.000000 -1.000000 0.000000
vn 0.000000 -1.000000 0.000000
vn 0.000000 -1.000000 0.000000
vn 0.000000 -1.000000 0.000000
vn 0.000000 -1.000000 0.000000
vn 0.000000 -1.000000 0.000000
vn 0.000000 -1.000000 0.000000
vn 0.000000 -1.000000 0.000000
vn 0.000000 -1.000000 0.000000
vn 0.000000 -1.000000 0.000000
vn 0.000000 -1.000000 0.000000
vn 0.000000 -1.000000 0.000000
vn 0.000000 -1.000000 0.000000
vn 0.000000 -1.000000 0.000000
vn 0.000000 -1.000000 0.000000
vn 0.000000 -1.000000 0.000000
vn 0.000000 -1.000000 0.000000
vn 0.000000 1.000000 -0.000000
vn 0.000000 1.000000 -0.000000
vn 0.000000 1.000000 -0.000000
vn 0.000000 1.000000 -0.000000
vn 0.000000 1.000000 -0.000000
vn 0.000000 1.000000 -0.000000
vn 0.000000 1.000000 -0.000000
vn 0.000000 1.000000 -0.000000
vn 0.000000 1.000000 -0.000000
vn 0.000000 1.000000 -0.000000
vn 0.000000 1.000000 -0.000000
vn 0.000000 1.000000 -0.000000
vn 0.000000 1.000000 -0.000000
vn 0.000000 1.000000 -0.000000
vn 0.000000 1.000000 -0.000000
vn 0.000000 1.000000 -0.000000
vn 0.000000 1.000000 -0.000000
vn 0.000000 1.000000 -0.000000
vn 0.000000 1.000000 0.000000
vn 0.000000 1.000000 0.000000
vn 0.000000 1.000000 0.000000
vn 0.000000 1.000000 0.000000
vn 0.000000 1.000000 0.000000
vn 0.000000 1.000000 0.000000
vn 0.000000 1.000000 0.000000
vn 0.000000 1.000000 0.000000
vn 0.000000 1.000000 0.000000
vn 0.000000 1.000000 0.000000
vn 0.000000 1.000000 0.000000
vn 0.000000 1.000000 0.000000
vn 0.000000 1.000000 0.000001
vn 0.000000 1.000000 0.000001
vn 0.000000 1.000000 0.000001
vn 0.000000 1.000000 0.000001
vn 0.000000 1.000000 -0.000001
vn 0.000000 1.000000 -0.000001
vn 0.000000 1.000000 -0.000001
vn 0.000000 1.000000 -0.000001
vn 0.000000 1.000000 -0.000000
vn 0.000000 1.000000 -0.000000
vn 0.000000 1.000000 -0.000000
vn 0.000000 1.000000 -0.000000
vn 0.000000 1.000000 0.000000
vn 0.000000 1.000000 0.000000
vn 0.000000 1.000000 0.000000
vn 0.000000 1.000000 0.000000
vn 0.000000 1.000000 -0.000000
vn 0.000000 1.000000 -0.000000
vn 0.000000 1.000000 -0.000000
vn 0.000000 1.000000 -0.000000
vn 0.000000 1.000000 0.000000
vn 0.000000 1.000000 0.000000
vn 0.000000 1.000000 0.000000
vn 0.000000 1.000000 0.000000
vn 0.000000 1.000000 0.000000
vn 0.000000 1.000000 0.000000
vn 0.000000 1.000000 0.000000
vn 0.000000 1.000000 0.000000
vn 0.000000 1.000000 0.000000
vn 0.000000 1.000000 0.000000
vn 0.000000 1.000000 0.000000
vn 0.000000 1.000000 0.000000
vn 0.000000 1.000000 0.000000
vn 0.000000 1.000000 0.000000
vn 0.000000 1.000000 0.000000
vn 0.000000 1.000000 0.000000
vn 0.000000 1.000000 0.000000
vn 0.000000 1.000000 0.000000
vn 0.000000 1.000000 0.000000
vn 0.000000 1.000000 0.000000
vn 0.000000 1.000000 0.000001
vn 0.000000 1.000000 0.000001
vn 0.000000 1.000000 0.000001
vn 0.000000 1.000000 0.000001
vn 0.000000 1.000000 0.000000
vn 0.000000 1.000000 0.000000
vn 0.000000 1.000000 0.000000
vn 0.000000 1.000000 0.000000
vn 0.000000 1.000000 -0.000000
vn 0.000000 1.000000 -0.000000
vn 0.000000 1.000000 -0.000000
vn 0.000000 1.000000 -0.000000
vn 0.000000 1.000000 0.000000
vn 0.000000 1.000000 0.000000
vn 0.000000 1.000000 0.000000
vn 0.000000 1.000000 0.000000
vn 0.000000 1.000000 0.000000
vn 0.000000 1.000000 0.000000
vn 0.000000 1.000000 0.000000
vn 0.000000 1.000000 0.000000
vn -0.960733 0.219762 0.169400
vn -0.960733 0.219762 0.169400
vn -0.960733 0.219762 0.169400
vn -0.960733 0.219762 0.169400
vn -0.844854 0.219762 0.487777
vn -0.844854 0.219762 0.487777
vn -0.844854 0.219762 0.487777
vn -0.844854 0.219762 0.487777
vn -0.627074 0.219762 0.747318
vn -0.627074 0.219762 0.747318
vn -0.627074 0.219762 0.747318
vn -0.627074 0.219762 0.747318
vn -0.333660 0.219762 0.916720
vn -0.333660 0.219762 0.916720
vn -0.333660 0.219762 0.916720
vn -0.333660 0.219762 0.916720
vn 0.000000 0.219762 0.975554
vn 0.000000 0.219762 0.975554
vn 0.000000 0.219762 0.975554
vn 0.000000 0.219762 0.975554
vn 0.333660 0.219762 0.916720
vn 0.333660 0.219762 0.916720
vn 0.333660 0.219762 0.916720
vn 0.333660 0.219762 0.916720
vn 0.627070 0.219762 0.747321
vn 0.627070 0.219762 0.747321
vn 0.627070 0.219762 0.747321
vn 0.627070 0.219762 0.747321
vn 0.844854 0.219762 0.487776
vn 0.844854 0.219762 0.487777
vn 0.844854 0.219762 0.487776
vn 0.844854 0.219762 0.487776
vn 0.960733 0.219762 0.169399
vn 0.960733 0.219762 0.169399
vn 0.960733 0.219762 0.169399
vn 0.960733 0.219762 0.169399
vn 0.960733 0.219762 -0.169400
vn 0.960733 0.219762 -0.169400
vn 0.960733 0.219762 -0.169400
vn 0.960733 0.219762 -0.169400
vn 0.844856 0.219762 -0.487775
vn 0.844856 0.219762 -0.487774
vn 0.844855 0.219762 -0.487774
vn 0.844855 0.219762 -0.487774
vn 0.627071 0.219762 -0.747320
vn 0.627071 0.219762 -0.747320
vn 0.627071 0.219762 -0.747320
vn 0.627071 0.219762 -0.747320
vn 0.333660 0.219762 -0.916720
vn 0.333660 0.219762 -0.916720
vn 0.333660 0.219762 -0.916720
vn 0.333660 0.219762 -0.916720
vn 0.000000 0.219762 -0.975554
vn 0.000000 0.219762 -0.975554
vn 0.000000 0.219762 -0.975554
vn 0.000000 0.219762 -0.975554
vn -0.333660 0.219762 -0.916720
vn -0.333660 0.219762 -0.916720
vn -0.333660 0.219762 -0.916720
vn -0.333660 0.219762 -0.916720
vn -0.627071 0.219762 -0.747320
vn -0.627071 0.219762 -0.747320
vn -0.627071 0.219762 -0.747320
vn -0.627071 0.219762 -0.747320
vn -0.844854 0.219762 -0.487777
vn -0.844854 0.219762 -0.487777
vn -0.844854 0.219762 -0.487777
vn -0.844854 0.219762 -0.487777
vn -0.960733 0.219762 -0.169399
vn -0.960733 0.219762 -0.169399
vn -0.960733 0.219762 -0.169399
vn -0.960733 0.219762 -0.169399
s 1
g pCylinder1
usemtl initialShadingGroup
f 1/1/1 2/2/2 20/3/3 19/4/4
f 2/2/2 3/5/5 21/6/6 20/3/3
f 3/129/5 4/130/7 22/131/8 21/132/6
f 4/130/7 5/133/9 23/134/10 22/131/8
f 5/133/9 6/135/11 24/136/12 23/134/10
f 6/21/11 7/15/13 25/18/14 24/22/12
f 7/15/13 8/16/15 26/17/16 25/18/14
f 8/16/15 9/19/17 27/20/18 26/17/16
f 9/19/17 10/23/19 28/24/20 27/20/18
f 10/23/19 11/25/21 29/26/22 28/24/20
f 11/25/21 12/27/23 30/28/24 29/26/22
f 12/137/23 13/138/25 31/139/26 30/140/24
f 13/138/25 14/141/27 32/142/28 31/139/26
f 14/141/27 15/143/29 33/144/30 32/142/28
f 15/13/29 16/11/31 34/12/32 33/14/30
f 16/11/31 17/9/33 35/10/34 34/12/32
f 17/9/33 18/7/35 36/8/36 35/10/34
f 18/7/35 1/1/1 19/4/4 36/8/36
s off
f 17/57/37 16/58/38 15/59/39 14/60/40 13/61/41 12/62/42 11/63/43 10/64/44 9/65/45 8/66/46 7/67/47 6/68/48 5/69/49 4/70/50 3/71/51 2/72/52 1/73/53 18/74/54
f 55/75/55 56/76/56 57/77/57 58/78/58 59/79/59 60/80/60 61/81/61 62/82/62 63/83/63 64/84/64 65/85/65 66/86/66 67/87/67 68/88/68 69/89/69 70/90/70 71/91/71 72/92/72
f 36/93/73 19/94/74 38/95/75 37/96/76
f 19/94/77 20/97/78 39/98/79 38/95/80
f 20/97/81 21/101/82 40/102/83 39/98/84
f 21/101/85 22/105/86 41/106/87 40/102/88
f 22/105/89 23/109/90 42/110/91 41/106/92
f 23/109/93 24/113/94 43/114/95 42/110/96
f 24/113/97 25/117/98 44/118/99 43/114/100
f 25/117/101 26/121/102 45/122/103 44/118/104
f 26/121/105 27/125/106 46/126/107 45/122/108
f 27/125/109 28/127/110 47/128/111 46/126/112
f 28/127/113 29/123/114 48/124/115 47/128/116
f 29/123/117 30/119/118 49/120/119 48/124/120
f 30/119/121 31/115/122 50/116/123 49/120/124
f 31/115/125 32/111/126 51/112/127 50/116/128
f 32/111/129 33/107/130 52/108/131 51/112/132
f 33/107/133 34/103/134 53/104/135 52/108/136
f 34/103/137 35/99/138 54/100/139 53/104/140
f 35/99/141 36/93/142 37/96/143 54/100/144
f 37/29/145 38/30/146 56/31/147 55/32/148
f 38/30/149 39/33/150 57/34/151 56/31/152
f 39/33/153 40/37/154 58/38/155 57/34/156
f 40/145/157 41/146/158 59/147/159 58/148/160
f 41/146/161 42/149/162 60/150/163 59/147/164
f 42/149/165 43/151/166 61/152/167 60/150/168
f 43/49/169 44/43/170 62/46/171 61/50/172
f 44/43/173 45/44/174 63/45/175 62/46/176
f 45/44/177 46/47/178 64/48/179 63/45/180
f 46/47/181 47/51/182 65/52/183 64/48/184
f 47/51/185 48/53/186 66/54/187 65/52/188
f 48/53/189 49/55/190 67/56/191 66/54/192
f 49/153/193 50/154/194 68/155/195 67/156/196
f 50/154/197 51/157/198 69/158/199 68/155/200
f 51/157/201 52/159/202 70/160/203 69/158/204
f 52/41/205 53/39/206 71/40/207 70/42/208
f 53/39/209 54/35/210 72/36/211 71/40/212
f 54/35/213 37/29/214 55/32/215 72/36/216
